<?xml version="1.0" standalone="no"?>
<!DOCTYPE svg PUBLIC "-//W3C//DTD SVG 20010904//EN"
 "http://www.w3.org/TR/2001/REC-SVG-20010904/DTD/svg10.dtd">
<svg version="1.0" xmlns="http://www.w3.org/2000/svg"
 width="100.000000pt" height="100.000000pt" viewBox="0 0 100.000000 100.000000"
 preserveAspectRatio="xMidYMid meet">

<g transform="translate(0.000000,100.000000) scale(0.100000,-0.100000)"
fill="#000000" stroke="none">
<path d="M142 877 c-6 -7 -24 -68 -42 -137 -17 -69 -36 -135 -42 -147 -13 -26
3 -53 33 -53 19 0 18 -4 63 174 39 155 51 154 91 -4 14 -58 31 -120 36 -137
l11 -33 69 0 c38 0 70 1 70 3 1 1 5 65 8 142 l6 140 35 -2 c19 -1 38 -2 43 -2
4 -1 7 -26 7 -57 0 -53 21 -106 84 -206 15 -24 111 -26 120 -2 3 9 6 71 6 139
0 132 0 132 55 131 29 -1 30 -2 33 -58 2 -46 12 -72 50 -139 26 -45 53 -84 60
-87 14 -4 18 94 4 100 -4 2 -18 20 -30 41 -17 29 -22 54 -22 105 -1 94 -9 102
-105 102 -104 0 -104 -1 -105 -163 0 -147 -5 -153 -57 -67 -29 47 -33 63 -33
125 -1 98 -8 105 -107 105 -48 0 -84 -5 -91 -12 -8 -8 -12 -54 -12 -140 0
-108 -3 -130 -16 -135 -25 -9 -34 8 -65 131 -38 150 -42 156 -100 156 -26 0
-51 -6 -57 -13z"/>
<path d="M181 437 c-7 -14 -11 -58 -9 -121 3 -82 6 -101 21 -110 27 -17 37 8
37 102 0 45 3 82 8 82 4 0 54 2 111 3 121 2 111 11 136 -123 32 -165 29 -160
83 -160 60 0 64 7 87 135 9 55 22 111 28 125 l10 25 8 -30 c4 -16 15 -70 24
-120 24 -128 28 -135 86 -135 56 0 47 -19 93 196 27 127 27 154 -5 154 -25 0
-33 -21 -60 -162 -12 -65 -27 -118 -33 -118 -6 0 -21 55 -34 123 -13 67 -29
130 -36 140 -8 10 -26 17 -46 17 -20 0 -38 -7 -46 -17 -7 -10 -23 -73 -36
-140 -13 -68 -28 -123 -34 -123 -6 0 -21 53 -34 118 -35 178 -16 162 -195 162
-147 0 -152 -1 -164 -23z"/>
<path d="M362 357 c-6 -7 -12 -51 -14 -97 l-3 -85 -103 0 -102 0 0 -32 0 -33
129 0 c108 0 130 3 135 16 11 30 7 219 -6 232 -15 15 -23 15 -36 -1z"/>
</g>
</svg>
